<?xml version="1.0" encoding="utf-8"?>
<!-- Generator: Adobe Illustrator 23.0.3, SVG Export Plug-In . SVG Version: 6.00 Build 0)  -->
<svg version="1.1" xmlns="http://www.w3.org/2000/svg" xmlns:xlink="http://www.w3.org/1999/xlink" x="0px" y="0px"
	 viewBox="0 0 500 500" style="enable-background:new 0 0 500 500;" xml:space="preserve">
<style type="text/css">
	.st0{fill:#E9FCFF;}
	.st1{fill:#E5DEDC;}
	.st2{fill:#BCBCBC;}
	.st3{fill:#F4F2F2;}
	.st4{fill:#8BC1ED;}
	.st5{fill:#C2DFEF;}
	.st6{fill:#FEFEFC;}
	.st7{fill:#F76945;}
	.st8{fill:#EF583A;}
	.st9{fill:#45A4E5;}
	.st10{fill:#2569BA;}
	.st11{opacity:0.4;fill:#FFFFFF;}
	.st12{fill:#FCC625;}
	.st13{fill:#E5AB1A;}
	.st14{fill:#535250;}
	.st15{fill:#EDEBDE;}
	.st16{fill:#348BC6;}
	.st17{fill:#3E91D3;}
	.st18{fill:#666666;}
	.st19{fill:#565654;}
	.st20{fill:#F25D40;}
	.st21{fill:#FFFFFF;}
	.st22{fill:#CC1D19;}
	.st23{fill:#618444;}
	.st24{fill:#96CE4E;}
	.st25{fill:#85BC3F;}
	.st26{fill:#406FA7;}
	.st27{fill:#42A2CC;}
	.st28{fill:#2C5B89;}
	.st29{fill:#F27EAB;}
	.st30{opacity:0.3;fill:#E077A0;}
	.st31{fill:#303030;}
	.st32{fill:#2E607F;}
	.st33{fill:#255A75;}
	.st34{fill:#DB3581;}
	.st35{fill:#3F6BD8;}
	.st36{fill:#D8241A;}
	.st37{fill:#3A7091;}
	.st38{fill:#FFD052;}
	.st39{fill:#F9BF3E;}
	.st40{fill:#89BC40;}
	.st41{fill:#F9AA53;}
	.st42{fill:#FF962E;}
	.st43{fill:#FFCD50;}
	.st44{fill:#FFBC27;}
	.st45{fill:#F9B01E;}
	.st46{fill:#EFEFEF;}
	.st47{fill:#F9C71A;}
	.st48{fill:#EAEAEA;}
	.st49{fill:#FFC639;}
	.st50{fill:#FF6648;}
	.st51{fill:#EA5A3D;}
	.st52{fill:#3A3A3A;}
</style>
<g id="Background">
	<rect class="st0" width="500" height="500"/>
</g>
<g id="Objects">
	<g>
		<g>
			<g>
				<path class="st1" d="M430.19,345.72v0.36h-19.32v-0.36c0-3.48,2.18-6.44,5.24-7.63c0.92-0.35,1.53-1.24,1.53-2.22v-4.29
					c0-0.79-0.26-1.55-0.72-2.18c-0.54-0.73-0.86-1.62-0.86-2.6c0-2.48,2.01-4.48,4.48-4.47c0.31,0,0.63,0.03,0.94,0.1
					c1.71,0.35,3.07,1.75,3.42,3.45c0.28,1.37-0.09,2.64-0.83,3.6c-0.45,0.59-0.66,1.35-0.66,2.09v4.29c0,0.98,0.61,1.87,1.54,2.22
					C428.02,339.27,430.19,342.24,430.19,345.72z"/>
				<path class="st2" d="M430.19,345.72v0.36h-5.22c0.32-3.74-1.76-7.24-2.46-8.3c-0.15-0.23-0.23-0.49-0.23-0.77v-6.32
					c0-0.23,0.06-0.46,0.17-0.67c0.29-0.54,0.85-1.79,0.88-3.49c0.04-2.34-2.8-4.19-2.8-4.19s0,0,0.01-0.01
					c0.31,0,0.63,0.03,0.94,0.1c1.71,0.35,3.07,1.75,3.42,3.45c0.27,1.36-0.08,2.62-0.82,3.58c-0.46,0.6-0.67,1.36-0.67,2.11v4.29
					c0,0.98,0.61,1.87,1.54,2.22C428.02,339.27,430.19,342.24,430.19,345.72z"/>
				<path class="st3" d="M421.36,326.44c0,0.8-0.65,1.44-1.44,1.44c-0.8,0-1.44-0.65-1.44-1.44c0-0.8,0.65-1.45,1.44-1.45
					C420.71,324.99,421.36,325.64,421.36,326.44z"/>
				<path class="st3" d="M416.76,341.99c-0.33-0.37-1.05-0.26-1.61,0.24c-0.56,0.5-0.76,1.2-0.43,1.57
					c0.33,0.37,1.05,0.26,1.61-0.24C416.9,343.06,417.09,342.36,416.76,341.99z"/>
			</g>
			<path class="st4" d="M434.54,360.78L434.54,360.78c-0.08,0-0.15-0.07-0.15-0.15v-3.91h-27.72v3.91c0,0.08-0.07,0.15-0.15,0.15
				l0,0c-2.78,0-5.03,2.25-5.03,5.03v45.37c0,3.79,3.08,6.87,6.87,6.87h24.35c3.79,0,6.87-3.07,6.87-6.87v-45.37
				C439.57,363.03,437.32,360.78,434.54,360.78z"/>
			<path class="st5" d="M408.35,416.36c-2.86,0-5.19-2.33-5.19-5.19v-45.37c0-1.85,1.5-3.35,3.35-3.35c1.01,0,1.83-0.82,1.83-1.83
				v-3.07h24.36v3.07c0,1.01,0.82,1.83,1.83,1.83c1.85,0,3.35,1.5,3.35,3.35v45.37c0,2.86-2.33,5.19-5.19,5.19H408.35z"/>
			<path class="st6" d="M416.68,388.84c-3.65-1.56-7.61-1.18-11.3,0.33c-0.32,0.13-0.53,0.45-0.53,0.8v21.21
				c0,1.94,1.57,3.51,3.51,3.51h24.35c1.94,0,3.51-1.57,3.51-3.51v-16.89c0-0.51-0.44-0.9-0.95-0.86
				C429.09,393.94,422.23,391.82,416.68,388.84z"/>
			<path class="st7" d="M433.9,353.08h-26.74v-5.68c0-1.5,1.22-2.72,2.72-2.72h21.31c1.5,0,2.72,1.22,2.72,2.72V353.08z"/>
			<path class="st8" d="M432.84,345.17c0.7,2.71-3,5.02-4.4,5.02c-7.09,1.77-14.19,1.46-21.29-0.05v2.94h26.74v-5.86
				C433.9,346.38,433.48,345.63,432.84,345.17z"/>
			<path class="st6" d="M436.21,372.88c1.07-0.83,0.21-4.95-2.31-4.9C430.39,368.04,433.9,374.66,436.21,372.88z"/>
			<polygon class="st4" points="413.39,400.32 413.39,399.48 405.69,399.48 405.69,392.69 411.8,392.69 411.8,391.85 405.69,391.85 
				405.69,385.16 409.41,385.16 409.41,384.32 405.69,384.32 405.69,377.84 411,377.84 411,377 405.69,377 405.69,370.83 
				409.62,370.83 409.62,369.99 404.85,369.99 404.85,405.68 412.7,405.68 412.7,404.84 405.69,404.84 405.69,400.32 			"/>
			<path class="st7" d="M433.64,357.98h-26.21c-1.77,0-3.2-1.44-3.2-3.2v-0.88c0-1.77,1.43-3.2,3.2-3.2h26.21
				c1.77,0,3.2,1.44,3.2,3.2v0.88C436.84,356.55,435.41,357.98,433.64,357.98z"/>
			<path class="st8" d="M433.84,350.7h-0.03c0.05,0.22,0.09,0.45,0.09,0.69v1.28c0,1.66-1.34,3-3,3h-26.6
				c0.31,1.32,1.49,2.31,2.91,2.31h26.62c1.66,0,3-1.34,3-3v-1.28C436.84,352.04,435.5,350.7,433.84,350.7z"/>
		</g>
		<g>
			<g>
				<path class="st1" d="M378.73,386.83v0.39h-21.06v-0.39c0-3.79,2.37-7.02,5.71-8.32c1-0.38,1.67-1.35,1.67-2.42v-4.68
					c0-0.86-0.28-1.7-0.79-2.38c-0.59-0.8-0.93-1.77-0.93-2.83c0-2.7,2.19-4.88,4.88-4.87c0.34,0,0.69,0.04,1.03,0.11
					c1.86,0.38,3.35,1.9,3.73,3.76c0.3,1.49-0.09,2.88-0.91,3.93c-0.5,0.64-0.71,1.46-0.71,2.28v4.68c0,1.07,0.67,2.03,1.68,2.42
					C376.36,379.8,378.73,383.04,378.73,386.83z"/>
				<path class="st2" d="M378.73,386.83v0.39h-5.69c0.35-4.08-1.92-7.89-2.68-9.05c-0.16-0.25-0.25-0.54-0.25-0.84v-6.89
					c0-0.25,0.06-0.5,0.18-0.72c0.32-0.58,0.93-1.95,0.96-3.81c0.04-2.55-3.06-4.57-3.06-4.57s0,0,0.01-0.01
					c0.34,0,0.69,0.04,1.03,0.11c1.86,0.38,3.35,1.9,3.73,3.76c0.3,1.48-0.09,2.86-0.89,3.9c-0.5,0.66-0.73,1.48-0.73,2.3v4.68
					c0,1.07,0.67,2.03,1.68,2.42C376.36,379.8,378.73,383.04,378.73,386.83z"/>
				<path class="st3" d="M369.1,365.81c0,0.87-0.71,1.57-1.57,1.57c-0.87,0-1.57-0.71-1.57-1.57c0-0.87,0.71-1.57,1.57-1.57
					C368.4,364.24,369.1,364.94,369.1,365.81z"/>
				<path class="st3" d="M364.09,382.77c-0.36-0.4-1.14-0.29-1.76,0.26c-0.62,0.54-0.83,1.31-0.47,1.71
					c0.36,0.4,1.14,0.29,1.76-0.26C364.24,383.94,364.45,383.17,364.09,382.77z"/>
			</g>
			<g>
				<path class="st9" d="M368.41,387.78c-8.06,0-14.6,6.54-14.6,14.6c0,8.06,6.53,14.6,14.6,14.6c8.06,0,14.59-6.54,14.59-14.6
					C383.01,394.32,376.47,387.78,368.41,387.78z M368.41,412.7c-5.7,0-10.32-4.62-10.32-10.32c0-5.7,4.62-10.32,10.32-10.32
					c5.7,0,10.32,4.62,10.32,10.32C378.73,408.08,374.11,412.7,368.41,412.7z"/>
				<path class="st10" d="M358.09,402.38c0-5.56,4.4-10.08,9.9-10.3c-0.14,0-0.28-0.02-0.42-0.02c-5.7,0-10.32,4.62-10.32,10.32
					c0,5.7,4.62,10.32,10.32,10.32c0.14,0,0.28-0.02,0.42-0.02C362.49,412.46,358.09,407.94,358.09,402.38z"/>
				<path class="st10" d="M368.41,387.78c-0.14,0-0.28,0.02-0.42,0.02c7.86,0.22,14.17,6.65,14.17,14.57
					c0,7.92-6.31,14.35-14.17,14.57c0.14,0,0.28,0.02,0.42,0.02c8.06,0,14.59-6.54,14.59-14.6
					C383.01,394.32,376.47,387.78,368.41,387.78z"/>
				<path class="st11" d="M368.41,415.29c-7.12,0-12.92-5.79-12.92-12.92s5.79-12.92,12.92-12.92c7.12,0,12.92,5.79,12.92,12.92
					S375.53,415.29,368.41,415.29z M368.41,390.38c-6.62,0-12,5.38-12,12c0,6.62,5.38,12,12,12c6.62,0,12-5.38,12-12
					C380.41,395.76,375.03,390.38,368.41,390.38z"/>
				<g>
					<path class="st9" d="M384.48,390.58h-32.55c-1.39,0-2.52-1.13-2.52-2.52l0,0c0-1.39,1.13-2.52,2.52-2.52h32.55
						c1.39,0,2.52,1.13,2.52,2.52l0,0C387,389.45,385.87,390.58,384.48,390.58z"/>
					<path class="st10" d="M385.28,385.69c0.02,0.13,0.04,0.25,0.04,0.38c0,1.39-1.13,2.52-2.52,2.52h-32.55
						c-0.28,0-0.55-0.06-0.8-0.14c0.19,1.21,1.22,2.14,2.48,2.14h32.55c1.39,0,2.52-1.13,2.52-2.52
						C387,386.95,386.28,386.02,385.28,385.69z"/>
					<path class="st11" d="M382.31,386.31h-30.38c-0.39,0-0.7,0.31-0.7,0.7l0,0c0,0.39,0.31,0.7,0.7,0.7h30.38
						c0.39,0,0.7-0.31,0.7-0.7l0,0C383.01,386.63,382.69,386.31,382.31,386.31z"/>
				</g>
			</g>
		</g>
	</g>
	<g>
		<g>
			<g>
				<g>
					<path class="st12" d="M89.04,216.51l-0.87,1.04l-1.02,1.21l-19.2-15.92c-0.46-0.38-1.04-0.6-1.63-0.6H48v-2.94h19.38
						c0.6,0,1.18,0.22,1.63,0.6L89.04,216.51z"/>
				</g>
			</g>
			<path class="st13" d="M88.17,217.55l-1.02,1.21l-19.2-15.92c-0.46-0.38-1.04-0.6-1.63-0.6H48v-1.68h18.38
				c0.6,0,1.18,0.21,1.65,0.59L88.17,217.55z"/>
		</g>
		<g>
			<g>
				<g>
					
						<rect x="124.8" y="244.82" transform="matrix(0.5981 -0.8014 0.8014 0.5981 -155.4334 203.8502)" class="st12" width="1.47" height="24.17"/>
				</g>
			</g>
			<g>
				<g>
					
						<rect x="111.73" y="254.69" transform="matrix(0.8008 -0.5989 0.5989 0.8008 -127.823 126.4951)" class="st12" width="29.08" height="1.47"/>
				</g>
			</g>
			
				<ellipse transform="matrix(0.7071 -0.7071 0.7071 0.7071 -157.8633 157.5403)" class="st14" cx="111.24" cy="269.33" rx="7.69" ry="7.69"/>
			<path class="st15" d="M115.72,269.33c0,2.47-2.01,4.48-4.48,4.48c-2.48,0-4.48-2.01-4.48-4.48s2.01-4.48,4.48-4.48
				C113.71,264.85,115.72,266.85,115.72,269.33z"/>
			<path class="st14" d="M146.34,269.33c0,4.24-3.44,7.69-7.69,7.69c-4.25,0-7.69-3.44-7.69-7.69c0-4.24,3.44-7.69,7.69-7.69
				C142.9,261.64,146.34,265.08,146.34,269.33z"/>
			<path class="st15" d="M143.14,269.33c0,2.47-2.01,4.48-4.48,4.48c-2.48,0-4.48-2.01-4.48-4.48s2.01-4.48,4.48-4.48
				C141.13,264.85,143.14,266.85,143.14,269.33z"/>
		</g>
		<path class="st9" d="M82.13,217.63h76.51c0,0-3.92,32.86-37.03,33.35C88.5,251.48,83.11,231.37,82.13,217.63z"/>
		<path class="st16" d="M155.75,217.63c-1.29,6.58-8.06,31.32-36.76,31.75c-10.34,0.15-17.98-1.71-23.62-4.75
			c5.83,3.98,14.2,6.54,26.24,6.36c33.11-0.49,37.03-33.35,37.03-33.35H155.75z"/>
		<path class="st17" d="M158.64,217.64h-37.02v-33.83c0,0,10.21-2.1,14.91,4.16v0.02c0.29,0.37,0.54,0.76,0.78,1.19
			c0,0,0.51-0.12,1.35-0.21c3.56-0.38,12.96-0.26,13.52,11.58c0.01,0.37,0.03,0.74,0.03,1.13c0,0,0.46-0.04,1.12,0.1
			C155.55,202.24,160.2,204.71,158.64,217.64z"/>
		<path class="st10" d="M158.64,217.64h-1.52c1.09-11.2-2.72-13.96-4.99-14.64c-0.9-0.26-1.56-0.21-1.56-0.21v-0.25
			c-0.12-11.67-8.34-12.76-12.51-12.54c-1.43,0.06-2.38,0.28-2.38,0.28c-0.03-0.06-0.06-0.12-0.1-0.18
			c-3.3-5.75-10.7-5.74-13.96-5.41v-0.88c0,0,10.21-2.1,14.91,4.16v0.02c0.29,0.37,0.54,0.76,0.78,1.19c0,0,0.51-0.12,1.35-0.21
			c3.56-0.38,12.96-0.26,13.52,11.58c0.01,0.37,0.03,0.74,0.03,1.13c0,0,0.46-0.04,1.12,0.1
			C155.55,202.24,160.2,204.71,158.64,217.64z"/>
		<path class="st10" d="M138.66,188.98l-0.59,1.03l-10.67,18.64l8.18-18.54l0.94-2.12c0.29,0.37,0.54,0.76,0.78,1.19
			C137.3,189.18,137.82,189.07,138.66,188.98z"/>
		<path class="st10" d="M153.33,201.79l-1.19,1.21l-11.01,11.2l9.45-11.65l1.6-1.99c0.01,0.37,0.03,0.74,0.03,1.13
			C152.21,201.69,152.66,201.65,153.33,201.79z"/>
		<g>
			<path class="st12" d="M159.27,216.03H81.67c-0.58,0-1.05,0.47-1.05,1.05v1.34c0,0.58,0.47,1.05,1.05,1.05h77.61
				c0.58,0,1.05-0.47,1.05-1.05v-1.34C160.32,216.5,159.85,216.03,159.27,216.03z"/>
			<path class="st13" d="M158.6,216.03h-0.07c0.05,0.17,0.1,0.34,0.1,0.52c0,0.95-0.77,1.72-1.72,1.72h-76.2
				c0.22,0.69,0.85,1.2,1.61,1.2h76.27c0.95,0,1.72-0.77,1.72-1.72C160.32,216.8,159.55,216.03,158.6,216.03z"/>
		</g>
		<g>
			<path class="st18" d="M58.7,198.93v4.12c0,0.71-0.57,1.29-1.28,1.29H44.55c-0.72,0-1.29-0.59-1.29-1.29v-4.12
				c0-0.72,0.57-1.29,1.29-1.29h12.87C58.13,197.63,58.7,198.2,58.7,198.93z"/>
			<path class="st19" d="M58.7,198.93v4.03c0,0.76-0.62,1.38-1.37,1.38H44.55c-0.72,0-1.29-0.59-1.29-1.29v-0.56h12.23
				c0.77,0,1.37-0.62,1.37-1.37v-3.49h0.57C58.13,197.63,58.7,198.2,58.7,198.93z"/>
		</g>
	</g>
	<g>
		<g>
			<g>
				<g>
					<path class="st7" d="M97.37,77.84c0.38,0.01,0.76,0.02,1.13,0.05C98.13,77.87,97.75,77.85,97.37,77.84z"/>
					<path class="st7" d="M134.83,116.62v35.42c0,4.43-3.59,8.01-8.01,8.01h-61.6c-4.42,0-8.01-3.58-8.01-8.01v-35.42
						c0-10.72,4.35-20.42,11.36-27.45C75.6,82.15,85.3,77.8,96.03,77.8c0.13,0,0.27,0.01,0.41,0.01
						c-10.47,0.12-18.93,8.03-18.93,17.79c0,9.83,8.58,17.81,19.14,17.81c10.57,0,19.14-7.98,19.14-17.81
						c0-4.6-1.88-8.79-4.96-11.95c-0.25-0.26-0.5-0.49-0.76-0.73c-3.01-2.76-7-4.58-11.43-5.02
						C118.85,79.26,134.83,96.07,134.83,116.62z"/>
					<path class="st7" d="M98.5,77.9c0.05,0,0.1,0.01,0.14,0.01C98.6,77.9,98.55,77.9,98.5,77.9z"/>
					<path class="st7" d="M96.65,77.81c-0.07,0-0.14,0.01-0.22,0.01c0.32,0,0.63,0.01,0.94,0.02
						C97.13,77.83,96.89,77.81,96.65,77.81z"/>
				</g>
			</g>
			<g>
				<g>
					<path class="st7" d="M97.37,77.84c0.38,0.01,0.76,0.02,1.13,0.05C98.13,77.87,97.75,77.85,97.37,77.84z"/>
					<path class="st20" d="M115.93,83.31c9.17,23.09,16.52,50.9-1.66,66.35c-5.94,5.05-12.54,8.28-19.55,10.38h32.1
						c4.42,0,8.01-3.58,8.01-8.01v-35.42C134.83,102.47,127.25,90.09,115.93,83.31z"/>
					<path class="st7" d="M98.5,77.9c0.05,0,0.1,0.01,0.14,0.01C98.6,77.9,98.55,77.9,98.5,77.9z"/>
					<path class="st7" d="M96.65,77.81c-0.07,0-0.14,0.01-0.22,0.01c0.32,0,0.63,0.01,0.94,0.02
						C97.13,77.83,96.89,77.81,96.65,77.81z"/>
				</g>
			</g>
			<g>
				<path class="st21" d="M83.03,82.34c-0.95,0.36-1.91,0.77-2.83,1.22l0.22,0.46c0.91-0.44,1.85-0.83,2.79-1.2L83.03,82.34z
					 M110.14,82.78l-0.06,0.15c0.26,0.23,0.51,0.47,0.76,0.73c0.63,0.28,1.25,0.58,1.86,0.9l0.23-0.46
					C112.02,83.61,111.08,83.18,110.14,82.78z M77.47,85c-0.89,0.52-1.75,1.09-2.6,1.68l0.3,0.43c0.83-0.59,1.69-1.14,2.55-1.66
					L77.47,85z M115.6,85.63l-0.28,0.44c0.85,0.53,1.7,1.12,2.5,1.73l0.31-0.42C117.32,86.78,116.47,86.18,115.6,85.63z
					 M72.44,88.56c-0.79,0.66-1.56,1.36-2.29,2.08l0.36,0.36c0.73-0.71,1.47-1.4,2.25-2.05L72.44,88.56z M120.52,89.35l-0.34,0.38
					c0.75,0.67,1.47,1.39,2.18,2.13l0.37-0.35C122.02,90.76,121.28,90.03,120.52,89.35z M68.06,92.91c-0.66,0.78-1.3,1.59-1.9,2.42
					l0.42,0.31c0.6-0.82,1.23-1.63,1.88-2.4L68.06,92.91z M124.75,93.84l-0.41,0.32c0.63,0.79,1.24,1.61,1.79,2.46l0.43-0.29
					C126,95.47,125.39,94.64,124.75,93.84z M64.48,97.92c-0.52,0.88-1.03,1.78-1.47,2.71l0.46,0.22c0.45-0.91,0.94-1.82,1.45-2.67
					L64.48,97.92z M128.18,98.95l-0.46,0.26c0.5,0.89,0.95,1.8,1.37,2.71l0.47-0.21C129.14,100.79,128.68,99.86,128.18,98.95z
					 M61.76,103.46c-0.36,0.96-0.71,1.94-0.99,2.92l0.5,0.15c0.28-0.96,0.61-1.93,0.97-2.88L61.76,103.46z M130.7,104.57l-0.49,0.17
					c0.34,0.96,0.63,1.93,0.89,2.92l0.5-0.13C131.34,106.54,131.04,105.54,130.7,104.57z M60.03,109.38
					c-0.2,0.99-0.37,2.02-0.49,3.04l0.51,0.05c0.12-1,0.28-2.01,0.48-3L60.03,109.38z M132.23,110.54l-0.51,0.09
					c0.17,0.99,0.3,2.01,0.38,3.02l0.51-0.05C132.53,112.57,132.41,111.55,132.23,110.54z M59.32,115.5
					c-0.01,0.39-0.02,0.79-0.02,1.2v1.87h0.52v-1.87c0-0.4,0-0.79,0.01-1.19L59.32,115.5z M132.75,116.68l-0.51,0.01v3.05h0.51
					l-0.01-2.99L132.75,116.68z M59.29,121.63v3.07h0.52v-3.07H59.29z M132.23,122.81v3.07h0.51v-3.07H132.23z M59.29,127.76v3.07
					h0.52v-3.07H59.29z M132.23,128.94V132h0.51v-3.05H132.23z M59.29,133.89v3.05h0.52v-3.05H59.29z M132.23,135.06v3.07h0.51
					v-3.07H132.23z M59.29,140.01v3.07h0.52v-3.07H59.29z M132.23,141.2v3.06h0.51v-3.06H132.23z M59.29,146.14v3.07h0.52v-3.07
					H59.29z M132.23,147.33v3.07h0.51v-3.07H132.23z M59.95,152.21l-0.51,0.11c0.21,1.04,0.67,2.03,1.31,2.86l0.42-0.31
					C60.55,154.09,60.14,153.17,59.95,152.21z M131.77,153.3c-0.35,0.91-0.93,1.74-1.66,2.4l0.34,0.38c0.79-0.72,1.41-1.61,1.79-2.6
					L131.77,153.3z M66.27,157.38c-1,0-1.95-0.22-2.85-0.66l-0.22,0.46c0.96,0.48,2,0.72,3.08,0.72h0.11v-0.51H66.27z M69.44,157.38
					v0.51h3.07v-0.51H69.44z M75.57,157.38v0.51h3.07v-0.51H75.57z M81.7,157.38v0.51h3.07v-0.51H81.7z M87.82,157.38v0.51h3.07
					v-0.51H87.82z M93.95,157.38v0.51h3.07v-0.51H93.95z M100.09,157.38v0.51h3.07v-0.51H100.09z M106.22,157.38v0.51h3.07v-0.51
					H106.22z M112.35,157.38v0.51h3.05v-0.51H112.35z M118.47,157.38v0.51h3.07v-0.51H118.47z M127.57,157.12
					c-0.58,0.17-1.17,0.26-1.78,0.26h-1.19v0.51h1.19c0.65,0,1.3-0.09,1.92-0.27L127.57,157.12z"/>
			</g>
			<g>
				<g>
					<path class="st21" d="M96.58,78.66c-1.77,0-3.96-1.03-5.84-2.91c-1.33-1.33-2.28-2.88-2.69-4.37c-0.44-1.59-0.2-2.94,0.66-3.8
						c1.72-1.72,5.3-0.82,8.17,2.03c2.86,2.86,3.75,6.45,2.03,8.17C98.32,78.37,97.51,78.66,96.58,78.66z M91.02,67.75
						c-0.65,0-1.2,0.18-1.58,0.56c-0.58,0.58-0.72,1.57-0.39,2.79c0.36,1.32,1.22,2.71,2.42,3.91c2.37,2.37,5.43,3.3,6.69,2.04
						c1.26-1.26,0.33-4.33-2.03-6.7C94.49,68.71,92.5,67.75,91.02,67.75z"/>
				</g>
				<path class="st21" d="M104.82,75.75c2.86-2.86,3.75-6.45,2.04-8.16c-1.72-1.72-5.3-0.82-8.17,2.03
					c-2.86,2.86-3.75,6.45-2.03,8.17c0.14,0.14,0.3,0.26,0.46,0.37c-0.18,1.27-1.12,6-5.1,6.67l0.17,1.02
					c3.43-0.58,4.92-3.6,5.55-5.74c0.9,3.05,2.77,7.91,5.84,9.32l0.43-0.94c-2.59-1.19-4.59-5.92-5.61-9.87
					c0.19,0.03,0.37,0.05,0.57,0.05C100.75,78.66,102.94,77.63,104.82,75.75z M97.39,77.05c-1.26-1.26-0.33-4.33,2.03-6.7
					c1.65-1.65,3.63-2.6,5.12-2.6c0.65,0,1.2,0.18,1.58,0.56c1.26,1.26,0.33,4.33-2.04,6.69C101.72,77.38,98.65,78.31,97.39,77.05z"
					/>
			</g>
		</g>
		<g>
			<path class="st21" d="M97.55,137.69c0,0.85-0.69,1.53-1.53,1.53c-0.85,0-1.53-0.69-1.53-1.53c0-0.85,0.69-1.53,1.53-1.53
				C96.87,136.16,97.55,136.84,97.55,137.69z"/>
			<path class="st21" d="M99.01,131.58c0,2.22-1.34,4.02-2.99,4.02c-1.65,0-2.99-1.8-2.99-4.02c0-2.22,1.34-4.03,2.99-4.03
				C97.67,127.56,99.01,129.36,99.01,131.58z"/>
			<path class="st21" d="M91.14,132.96c2.11,0.69,3.41,2.52,2.9,4.09c-0.51,1.57-2.64,2.29-4.75,1.6c-2.11-0.69-3.41-2.52-2.9-4.09
				C86.89,132.99,89.02,132.27,91.14,132.96z"/>
			<path class="st21" d="M90.01,140.87c1.31-1.8,3.45-2.47,4.79-1.5c1.34,0.97,1.36,3.22,0.05,5.02c-1.31,1.8-3.45,2.47-4.79,1.5
				C88.73,144.92,88.7,142.67,90.01,140.87z"/>
			<path class="st21" d="M97.19,144.39c-1.31-1.8-1.28-4.04,0.05-5.02c1.34-0.97,3.48-0.3,4.79,1.5c1.31,1.8,1.28,4.04-0.05,5.01
				C100.64,146.86,98.5,146.19,97.19,144.39z"/>
			<path class="st21" d="M102.76,138.65c-2.11,0.69-4.24-0.03-4.75-1.6c-0.51-1.57,0.79-3.4,2.9-4.09c2.11-0.69,4.24,0.03,4.75,1.6
				C106.17,136.13,104.87,137.96,102.76,138.65z"/>
		</g>
	</g>
	<g>
		<g>
			<path class="st22" d="M228.55,112.91h-32.96c-2.31,0-4.19-1.87-4.19-4.19V75.77c0-2.31,1.88-4.19,4.19-4.19h32.96
				c2.31,0,4.19,1.88,4.19,4.19v32.96C232.74,111.04,230.86,112.91,228.55,112.91z"/>
			<path class="st7" d="M192.39,108.64V75.85c0-1.82,1.47-3.29,3.29-3.29h32.79c1.82,0,3.29,1.47,3.29,3.29v32.79
				c0,1.82-1.47,3.29-3.29,3.29h-32.79C193.86,111.93,192.39,110.46,192.39,108.64z"/>
			<g>
				<g>
					<g>
						<path class="st22" d="M227.82,110.08h-31.5c-1.15,0-2.09-0.94-2.09-2.09V76.5c0-1.15,0.94-2.09,2.09-2.09h31.5
							c1.15,0,2.09,0.94,2.09,2.09v31.5C229.91,109.15,228.97,110.08,227.82,110.08z M196.32,75.37c-0.62,0-1.12,0.5-1.12,1.13v31.5
							c0,0.62,0.5,1.13,1.12,1.13h31.5c0.62,0,1.12-0.5,1.12-1.13V76.5c0-0.62-0.5-1.13-1.12-1.13H196.32z"/>
					</g>
				</g>
				<g>
					<path class="st21" d="M228.14,110.45h-32.15c-1.18,0-2.13-0.96-2.13-2.13V76.17c0-1.18,0.96-2.13,2.13-2.13h32.15
						c1.18,0,2.13,0.96,2.13,2.13v32.15C230.28,109.5,229.32,110.45,228.14,110.45z M195.99,75.02c-0.63,0-1.15,0.51-1.15,1.15
						v32.15c0,0.63,0.52,1.15,1.15,1.15h32.15c0.63,0,1.15-0.52,1.15-1.15V76.17c0-0.63-0.52-1.15-1.15-1.15H195.99z"/>
				</g>
			</g>
			<g>
				<path class="st21" d="M217.15,98.11h-10.13l-2.29,6.23h-3.34l9.35-24.17h2.81l9.2,24.17h-3.34L217.15,98.11z M208.04,95.37h8.14
					l-3.98-11.01h-0.1L208.04,95.37z"/>
			</g>
		</g>
		<g>
			<path class="st23" d="M250.53,155.56h-32.96c-2.31,0-4.19-1.88-4.19-4.19v-32.96c0-2.31,1.88-4.19,4.19-4.19h32.96
				c2.31,0,4.19,1.87,4.19,4.19v32.96C254.72,153.69,252.84,155.56,250.53,155.56z"/>
			<path class="st24" d="M214.37,151.29V118.5c0-1.82,1.47-3.29,3.29-3.29h32.79c1.82,0,3.29,1.47,3.29,3.29v32.79
				c0,1.82-1.47,3.29-3.29,3.29h-32.79C215.84,154.58,214.37,153.1,214.37,151.29z"/>
			<g>
				<g>
					<g>
						<path class="st25" d="M249.8,152.73h-31.5c-1.15,0-2.09-0.94-2.09-2.09v-31.5c0-1.15,0.94-2.09,2.09-2.09h31.5
							c1.15,0,2.09,0.94,2.09,2.09v31.5C251.89,151.79,250.95,152.73,249.8,152.73z M218.3,118.02c-0.62,0-1.12,0.5-1.12,1.13v31.5
							c0,0.62,0.5,1.13,1.12,1.13h31.5c0.62,0,1.12-0.5,1.12-1.13v-31.5c0-0.62-0.5-1.13-1.12-1.13H218.3z"/>
					</g>
				</g>
				<g>
					<path class="st21" d="M250.12,153.1h-32.15c-1.18,0-2.13-0.96-2.13-2.13v-32.15c0-1.18,0.96-2.13,2.13-2.13h32.15
						c1.18,0,2.13,0.96,2.13,2.13v32.15C252.26,152.14,251.3,153.1,250.12,153.1z M217.97,117.67c-0.63,0-1.15,0.52-1.15,1.15v32.15
						c0,0.63,0.51,1.15,1.15,1.15h32.15c0.63,0,1.15-0.52,1.15-1.15v-32.15c0-0.63-0.52-1.15-1.15-1.15H217.97z"/>
				</g>
			</g>
			<g>
				<path class="st26" d="M206.57,155.56h-32.96c-2.31,0-4.19-1.88-4.19-4.19v-32.96c0-2.31,1.87-4.19,4.19-4.19h32.96
					c2.31,0,4.19,1.87,4.19,4.19v32.96C210.76,153.69,208.88,155.56,206.57,155.56z"/>
				<path class="st9" d="M170.41,151.29V118.5c0-1.82,1.47-3.29,3.29-3.29h32.79c1.82,0,3.29,1.47,3.29,3.29v32.79
					c0,1.82-1.47,3.29-3.29,3.29H173.7C171.88,154.58,170.41,153.1,170.41,151.29z"/>
				<g>
					<g>
						<g>
							<path class="st27" d="M205.84,152.73h-31.5c-1.15,0-2.09-0.94-2.09-2.09v-31.5c0-1.15,0.94-2.09,2.09-2.09h31.5
								c1.15,0,2.09,0.94,2.09,2.09v31.5C207.93,151.79,206.99,152.73,205.84,152.73z M174.34,118.02c-0.62,0-1.12,0.5-1.12,1.13
								v31.5c0,0.62,0.5,1.13,1.12,1.13h31.5c0.62,0,1.12-0.5,1.12-1.13v-31.5c0-0.62-0.5-1.13-1.12-1.13H174.34z"/>
						</g>
					</g>
					<g>
						<path class="st21" d="M206.16,153.1h-32.15c-1.18,0-2.13-0.96-2.13-2.13v-32.15c0-1.18,0.96-2.13,2.13-2.13h32.15
							c1.18,0,2.13,0.96,2.13,2.13v32.15C208.3,152.14,207.34,153.1,206.16,153.1z M174.01,117.67c-0.63,0-1.15,0.52-1.15,1.15
							v32.15c0,0.63,0.52,1.15,1.15,1.15h32.15c0.63,0,1.15-0.52,1.15-1.15v-32.15c0-0.63-0.52-1.15-1.15-1.15H174.01z"/>
					</g>
				</g>
				<g>
					<path class="st21" d="M181.63,146.98v-24.17h7.89c2.52,0,4.5,0.55,5.93,1.64c1.43,1.09,2.14,2.73,2.14,4.91
						c0,1.07-0.34,2.03-1.03,2.88c-0.69,0.85-1.59,1.48-2.71,1.88c1.46,0.31,2.61,1.02,3.44,2.14c0.84,1.12,1.25,2.42,1.25,3.9
						c0,2.21-0.72,3.91-2.15,5.07c-1.43,1.17-3.38,1.75-5.83,1.75H181.63z M184.9,133.08h5.3c1.22,0,2.21-0.33,2.97-1
						c0.76-0.67,1.15-1.6,1.15-2.8c0-1.31-0.41-2.28-1.24-2.93c-0.82-0.65-2.01-0.97-3.56-0.97h-4.62V133.08z M184.9,135.66v8.75
						h5.66c1.48,0,2.64-0.37,3.47-1.1c0.83-0.73,1.24-1.77,1.24-3.12c0-1.41-0.35-2.52-1.04-3.32c-0.69-0.81-1.76-1.21-3.2-1.21
						H184.9z"/>
				</g>
			</g>
			<g>
				<path class="st21" d="M243.09,139.23l0.03,0.1c0.04,2.27-0.75,4.17-2.39,5.7c-1.64,1.53-3.8,2.3-6.49,2.3
					c-2.73,0-4.96-0.97-6.68-2.91c-1.72-1.94-2.58-4.39-2.58-7.37v-4.3c0-2.98,0.86-5.44,2.58-7.38c1.72-1.94,3.95-2.91,6.68-2.91
					s4.91,0.73,6.52,2.18c1.62,1.46,2.4,3.38,2.36,5.79l-0.03,0.1h-3.14c0-1.69-0.5-3.03-1.49-4.02c-1-0.99-2.4-1.48-4.22-1.48
					c-1.83,0-3.28,0.74-4.37,2.21c-1.08,1.47-1.63,3.3-1.63,5.47v4.33c0,2.2,0.54,4.04,1.63,5.51c1.09,1.47,2.54,2.21,4.37,2.21
					c1.82,0,3.22-0.49,4.22-1.47c1-0.98,1.49-2.33,1.49-4.06H243.09z"/>
			</g>
		</g>
	</g>
	<g>
		<g>
			<path class="st28" d="M200.32,262.52c0,0-10.08,6.17-14.89,6.79c-4.81,0.62-10.39,0.62-10.39,0.62s3.65,4.27,11.87,1.39
				c8.22-2.87,14.27-7.99,14.27-7.99L200.32,262.52z"/>
			<path class="st28" d="M214.37,262.52c0,0-9.52,7-14.26,8.02c-4.74,1.03-10.3,1.5-10.3,1.5s3.99,3.94,11.94,0.38
				c7.95-3.56,13.54-9.17,13.54-9.17L214.37,262.52z"/>
			<path class="st29" d="M282.06,230.74c-4.14-0.24-17.54,4.01-29.34,14.86c-11.82,10.83-25.08,22.24-46.03,19.64
				c-20.94-2.59-24.35-18.43-24.35-18.43s10.55,2.79,29.31-1.64c0.93-0.22,1.87-0.46,2.83-0.71c2.18-0.57,4.35-1.08,6.5-1.51
				c10.82-2.19,20.85-2.73,26.03-2.86c2.63-0.06,5.2-0.76,7.51-2.05c3.95-2.22,10.27-6.12,15.49-10.95
				c8.28-7.68,18.14-9.63,21.06-4.27C293.99,228.18,286.2,230.98,282.06,230.74z"/>
			<path class="st30" d="M282.06,227.73c-4.14-0.24-17.54,4.02-29.35,14.86c-11.81,10.84-25.09,22.24-46.03,19.64
				c-14.91-1.85-20.93-10.4-23.16-15.18c-0.79-0.14-1.19-0.24-1.19-0.24s3.41,15.83,24.35,18.43c20.94,2.6,34.22-8.81,46.03-19.64
				c11.81-10.84,25.21-15.1,29.35-14.86c3.95,0.23,11.23-2.31,9.34-7.21C290.11,226.44,285.1,227.91,282.06,227.73z"/>
			<path class="st31" d="M285.92,224.07c0,0.63-0.51,1.14-1.14,1.14c-0.63,0-1.14-0.51-1.14-1.14c0-0.63,0.51-1.14,1.14-1.14
				C285.41,222.93,285.92,223.44,285.92,224.07z"/>
			<g>
				<path class="st32" d="M321.88,219.79c-0.02,0.01-0.05,0.01-0.07,0.02c-0.99,0.38-12.77,4.71-30.25,6.25c0,0-0.3-1.02-0.69-1.88
					c-0.2-0.45-0.65-1.11-0.96-1.55c-0.14-0.18-0.01-0.45,0.22-0.46L321.88,219.79z"/>
				<path class="st33" d="M321.82,219.81c-0.99,0.38-12.77,4.71-30.25,6.25c0,0-0.3-1.02-0.69-1.88
					C290.88,224.18,308.92,223.96,321.82,219.81z"/>
			</g>
			<path class="st30" d="M240.3,243.91c0,0-10.82,8.74-28.65,1.26c0.93-0.22,1.87-0.46,2.83-0.71c2.18-0.57,4.35-1.08,6.5-1.51
				L240.3,243.91z"/>
			<g>
				<path class="st29" d="M240.3,243.91c0,0-7.34,1.87-13.76,2.38c-1.61,0.12-3.15,0.15-4.51,0.06c-6.82-0.49-11.53-3.33-12.83-5.08
					c-1.3-1.75,3.33-4.58,3.33-4.58c-2.19,0.08-5.45-1.71-5.69-3c-0.24-1.3,3.37-3.05,3.37-3.05c-3.47,0.43-8.28-3.65-8.04-4.87
					c0.24-1.22,5.24-2.06,5.24-2.06c-9.5-2.44-12.06-10.11-12.06-10.11c1.97-1.96,7.01-2.61,8.48-2.76
					c0.26-0.03,0.41-0.04,0.41-0.04c-0.16-0.02-0.31-0.04-0.46-0.07c-13.49-2.01-21.46-12.84-21.46-12.84
					c3.22-0.69,14.25,2.09,15.48,2.41c-8.37-2.26-16.45-13.12-16.45-13.12s6.98,0.31,14.99,2.8c7.75,2.41,16.49,6.84,20.81,14.98
					C228.85,235.14,240.3,243.91,240.3,243.91z"/>
				<path class="st28" d="M203.79,210.72c-13.49-2.01-21.46-12.84-21.46-12.84c3.22-0.69,14.25,2.09,15.48,2.41
					c-8.37-2.26-16.45-13.12-16.45-13.12s6.98,0.31,14.99,2.8c-0.76,1.46-1.05,4.05,1.48,8.24
					C199.17,200.41,201.21,205.08,203.79,210.72z"/>
				<path class="st28" d="M226.54,246.29c-1.61,0.12-3.15,0.15-4.51,0.06c-6.82-0.49-11.53-3.33-12.83-5.08
					c-1.3-1.75,3.33-4.58,3.33-4.58c-2.19,0.08-5.45-1.71-5.69-3c-0.24-1.3,3.37-3.05,3.37-3.05c-3.47,0.43-8.28-3.65-8.04-4.87
					c0.24-1.22,5.24-2.06,5.24-2.06c-9.5-2.44-12.06-10.11-12.06-10.11c1.97-1.96,7.01-2.61,8.48-2.76
					C209.45,223.06,217.58,239.86,226.54,246.29z"/>
			</g>
		</g>
		<g>
			<g>
				<path class="st9" d="M334.21,260.95c0,11.32-9.18,20.51-20.51,20.51c-11.33,0-20.5-9.18-20.5-20.51
					c0-11.32,20.5-41.08,20.5-41.08S334.21,249.63,334.21,260.95z"/>
				<path class="st16" d="M313.7,219.87c0,0-0.01,0.01-0.01,0.01c5.98,9.34,16.41,26.79,16.41,34.87c0,11.32-9.18,20.5-20.5,20.5
					c-5.82,0-11.05-2.43-14.79-6.32c3.12,7.35,10.4,12.51,18.89,12.51c11.33,0,20.51-9.18,20.51-20.51
					C334.21,249.63,313.7,219.87,313.7,219.87z"/>
				<path class="st9" d="M313.48,211.18c-4.43,1.04,0.31,8.69,0.31,8.69C316.04,217.26,317.03,210.34,313.48,211.18z M313.73,219.69
					c0,0-2.98-4.81-0.19-5.46C315.77,213.7,315.14,218.04,313.73,219.69z"/>
				<path class="st9" d="M305.42,217.48c-0.38,4.54,8.36,2.39,8.36,2.39C311.99,216.92,305.73,213.83,305.42,217.48z M313.59,219.87
					c0,0-5.5,1.35-5.26-1.5C308.53,216.07,312.47,218.01,313.59,219.87z"/>
				<path class="st9" d="M321.96,216.89c-2.36-3.89-8.17,2.98-8.17,2.98C316.97,221.2,323.85,220.02,321.96,216.89z M313.94,219.76
					c0,0,3.65-4.32,5.14-1.87C320.27,219.85,315.94,220.6,313.94,219.76z"/>
			</g>
			<path class="st21" d="M321.03,254.76c0.27,3.9-7.08,8.39-7.08,8.39s-7.67-4.52-7.08-8.39c0.75-4.88,7.08-1.35,7.08-1.35
				S320.66,249.31,321.03,254.76z"/>
		</g>
	</g>
	<g>
		<g>
			<path class="st34" d="M359.35,141.59c0,0,6.43,10.6,22.33,14.35c0,0-0.88-10.55-4.86-12.67
				C372.85,141.16,359.35,141.59,359.35,141.59z"/>
			<path class="st34" d="M392.79,155.94c0,0,17.22-3.92,22.07-14.38l-11.04-0.89l-14.33,7.64L392.79,155.94z"/>
			<path class="st29" d="M414.87,123.67v17.06c0,0.62-0.49,1.11-1.09,1.15c-5.09,0.33-15.45,2.3-19.97,12.73
				c-0.55,1.25-1.74,2.09-3.1,2.09h-6.93c-1.35,0-2.55-0.84-3.09-2.08c-4.73-10.93-15.86-12.58-20.66-12.77
				c-0.26-0.01-0.49-0.11-0.67-0.26c-0.27-0.21-0.44-0.54-0.44-0.9v-17.03c0-1.12,0.92-2.03,2.04-2.03h51.88
				C413.96,121.64,414.87,122.55,414.87,123.67z"/>
			<path class="st30" d="M414.87,123.68v17.04c0,0.61-0.47,1.12-1.07,1.16c-5.08,0.32-15.46,2.29-19.99,12.73
				c-0.55,1.25-1.74,2.09-3.1,2.09h-6.93c-1.35,0-2.55-0.84-3.09-2.08c-4.73-10.93-15.86-12.58-20.66-12.77
				c-0.26-0.01-0.49-0.11-0.67-0.26c0,0,13.91-1.4,22.95,10.25c0.8,1.03,2.03,1.65,3.34,1.65h1.22c1.58,0,3.01-0.88,3.74-2.27
				c1.78-3.39,5.64-9.61,10.95-12.05c4.12-1.88,4.15-10.33,3.34-17.52h7.93C413.96,121.64,414.87,122.56,414.87,123.68z"/>
		</g>
		<g>
			<path class="st21" d="M375.37,129.6h-6.79c-0.49,0-0.89-0.4-0.89-0.89v-2.03c0-0.49,0.4-0.89,0.89-0.89h6.79
				c0.49,0,0.89,0.4,0.89,0.89v2.03C376.26,129.2,375.87,129.6,375.37,129.6z"/>
			<path class="st21" d="M405.21,129.6h-6.79c-0.49,0-0.89-0.4-0.89-0.89v-2.03c0-0.49,0.4-0.89,0.89-0.89h6.79
				c0.49,0,0.89,0.4,0.89,0.89v2.03C406.1,129.2,405.7,129.6,405.21,129.6z"/>
		</g>
		<g>
			<path class="st35" d="M428.59,131.31v-5.28c0-2.95,2.09-5.49,4.79-5.65c-0.12-0.01-0.25-0.02-0.37-0.01
				c-2.78,0.06-4.96,2.64-4.96,5.66v5.28c0,0.65,0.48,1.17,1.08,1.17h0.54C429.07,132.47,428.59,131.95,428.59,131.31z"/>
			<g>
				<path class="st9" d="M438.69,125.85c0-3.06-2.31-5.53-5.15-5.48c-2.78,0.06-4.96,2.64-4.96,5.66v5.28
					c0,0.65,0.48,1.17,1.08,1.17h1.06c0.68,0,1.25-0.54,1.34-1.27l0.19-1.56c0.09-0.69,0.57-1.28,1.21-1.37
					c0.76-0.1,1.43,0.48,1.53,1.28l0.21,1.64c0.09,0.73,0.66,1.27,1.34,1.27h1.06c0.59,0,1.08-0.52,1.08-1.17V125.85z"/>
				<path class="st35" d="M432.93,128.28c-0.64,0.08-1.12,0.67-1.21,1.37l-0.19,1.56c-0.09,0.73-0.66,1.27-1.34,1.27h0.54
					c0.68,0,1.25-0.54,1.34-1.27l0.19-1.56c0.08-0.65,0.52-1.21,1.1-1.34C433.23,128.27,433.08,128.26,432.93,128.28z"/>
				<path class="st35" d="M433.55,120.37c-0.06,0-0.12,0.01-0.17,0.01c2.66,0.16,4.78,2.54,4.78,5.47v5.46
					c0,0.65-0.48,1.17-1.08,1.17h0.54c0.59,0,1.08-0.52,1.08-1.17v-5.46C438.69,122.79,436.38,120.31,433.55,120.37z"/>
				<path class="st35" d="M435.21,131.2l-0.21-1.64c-0.1-0.8-0.77-1.38-1.53-1.28c-0.04,0-0.07,0.02-0.11,0.02
					c0.57,0.12,1.02,0.62,1.1,1.26l0.2,1.64c0.09,0.73,0.66,1.27,1.34,1.27h0.54C435.88,132.47,435.3,131.93,435.21,131.2z"/>
			</g>
			<g>
				<g>
					<path class="st2" d="M433.64,158.45c-0.86,0-1.62-0.36-2.26-1.07c-4.21-4.66-2.27-24.13-2.19-24.95l0.94,0.1
						c-0.02,0.2-1.98,19.88,1.95,24.23c0.46,0.51,0.97,0.76,1.56,0.76c0.6,0,1.12-0.25,1.59-0.78c3.95-4.38,1.93-24.01,1.91-24.21
						l0.94-0.1c0.09,0.82,2.08,20.24-2.15,24.94C435.28,158.08,434.51,158.45,433.64,158.45z"/>
				</g>
			</g>
			<g>
				<g>
					<path class="st2" d="M436.39,154.77c-0.23-1.39-1.43-2.39-2.84-2.39c-1.28,0-2.39,0.82-2.77,2.05l-0.9-0.28
						c0.5-1.62,1.97-2.71,3.67-2.71c1.88,0,3.46,1.34,3.77,3.18L436.39,154.77z"/>
				</g>
			</g>
			<path class="st36" d="M444.83,131.31v-5.28c0-2.95,2.09-5.49,4.79-5.65c-0.12-0.01-0.25-0.02-0.37-0.01
				c-2.78,0.06-4.96,2.64-4.96,5.66v5.28c0,0.65,0.48,1.17,1.08,1.17h0.54C445.31,132.47,444.83,131.95,444.83,131.31z"/>
			<g>
				<path class="st7" d="M454.93,125.85c0-3.06-2.31-5.53-5.15-5.48c-2.78,0.06-4.96,2.64-4.96,5.66v5.28
					c0,0.65,0.48,1.17,1.08,1.17h1.06c0.68,0,1.25-0.54,1.34-1.27l0.19-1.56c0.09-0.69,0.57-1.28,1.21-1.37
					c0.76-0.1,1.43,0.48,1.53,1.28l0.2,1.64c0.09,0.73,0.66,1.27,1.34,1.27h1.06c0.59,0,1.08-0.52,1.08-1.17V125.85z"/>
				<path class="st22" d="M449.17,128.28c-0.64,0.08-1.12,0.67-1.21,1.37l-0.19,1.56c-0.09,0.73-0.67,1.27-1.34,1.27h0.54
					c0.68,0,1.25-0.54,1.34-1.27l0.19-1.56c0.08-0.65,0.52-1.21,1.1-1.34C449.47,128.27,449.32,128.26,449.17,128.28z"/>
				<path class="st22" d="M449.79,120.37c-0.06,0-0.11,0.01-0.17,0.01c2.66,0.16,4.78,2.54,4.78,5.47v5.46
					c0,0.65-0.48,1.17-1.08,1.17h0.54c0.59,0,1.08-0.52,1.08-1.17v-5.46C454.93,122.79,452.62,120.31,449.79,120.37z"/>
				<path class="st22" d="M451.45,131.2l-0.2-1.64c-0.1-0.8-0.77-1.38-1.53-1.28c-0.04,0-0.07,0.02-0.11,0.02
					c0.57,0.12,1.02,0.62,1.1,1.26l0.2,1.64c0.09,0.73,0.66,1.27,1.34,1.27h0.54C452.11,132.47,451.54,131.93,451.45,131.2z"/>
			</g>
			<g>
				<g>
					<path class="st2" d="M449.88,158.45c-0.86,0-1.61-0.36-2.26-1.07c-4.21-4.66-2.27-24.13-2.19-24.95l0.94,0.1
						c-0.02,0.2-1.98,19.88,1.95,24.23c0.46,0.51,0.97,0.76,1.56,0.76c0.6,0,1.12-0.25,1.59-0.78c3.95-4.38,1.94-24.01,1.92-24.21
						l0.93-0.1c0.09,0.82,2.08,20.24-2.15,24.94C451.52,158.08,450.75,158.45,449.88,158.45z"/>
				</g>
			</g>
			<g>
				<g>
					<path class="st2" d="M452.63,154.77c-0.23-1.39-1.43-2.39-2.84-2.39c-1.28,0-2.39,0.82-2.77,2.05l-0.9-0.28
						c0.5-1.62,1.97-2.71,3.67-2.71c1.88,0,3.46,1.34,3.77,3.18L452.63,154.77z"/>
				</g>
			</g>
		</g>
		<g>
			<g>
				<path class="st37" d="M290.29,136.31c0,0,6.63,14.68,18.19,20.34l1.64-15.42c0,0-6.51-10.07-8.48-9.96
					C299.68,131.37,290.29,136.31,290.29,136.31z"/>
				<path class="st37" d="M342.07,135.85c0,0-6.77,15.01-18.6,20.8l-1.68-15.77c0,0,6.65-10.3,8.67-10.19
					C332.48,130.8,342.07,135.85,342.07,135.85z"/>
				<path class="st10" d="M355.26,79.02c-1.45,1.58-5.05,6.5-5.11,16.62c0,0.47-0.43,0.84-0.88,0.74l-2.82-0.55l-4.37-0.85v40.9
					c0,0.19-0.11,0.35-0.28,0.43c-2.08,0.87-15.27,6.78-17.32,19.34c-0.11,0.6-0.6,1.06-1.21,1.06h-14.43
					c-0.62,0-1.1-0.46-1.21-1.06c-2.05-12.56-15.24-18.47-17.32-19.34c-0.17-0.08-0.27-0.24-0.27-0.43v-40.9l-4.57,0.9l-2.63,0.5
					c-0.46,0.09-0.88-0.27-0.88-0.74c-0.06-10.13-3.66-15.05-5.11-16.62c-0.32-0.33-0.27-0.87,0.08-1.14
					c0.9-0.68,1.81-1.31,2.71-1.89c8.31-5.39,16.67-7.07,21.06-7.59c1.1-0.13,1.96-0.19,2.49-0.21c0.38-0.03,0.69,0.25,0.76,0.63
					c1.89,11.23,7.71,12.56,12.13,12.56c4.4,0,10.22-1.33,12.11-12.56c0.06-0.38,0.38-0.66,0.76-0.63c0.54,0.02,1.37,0.08,2.46,0.21
					c4.45,0.52,13.06,2.24,21.53,7.89c0.76,0.49,1.51,1.03,2.27,1.59C355.53,78.15,355.58,78.69,355.26,79.02z"/>
				<path class="st9" d="M309.12,155.12c-2.11-12.11-13.77-18.28-17.52-19.97V93.06l-6.46,1.27l-1.65,0.32
					c-0.26-8.89-3.18-13.84-4.93-16.03c0.6-0.43,1.25-0.87,1.92-1.31c8.08-5.24,16.24-6.85,20.38-7.34c0.6-0.07,1.16-0.12,1.64-0.16
					c1.68,8.85,6.12,13.15,13.55,13.15c7.42,0,11.86-4.3,13.54-13.15c0.39,0.03,0.92,0.08,1.61,0.16c4.25,0.5,12.62,2.15,20.84,7.63
					c0.5,0.33,1,0.67,1.49,1.02c-1.77,2.21-4.68,7.16-4.94,16.02l-8.09-1.58v42.08c-3.66,1.64-15.39,7.8-17.54,19.97H309.12z"/>
				<path class="st16" d="M352.04,77.6c-8.22-5.48-16.58-7.13-20.84-7.63c-0.69-0.08-1.22-0.13-1.61-0.16
					c-0.15,1.47-0.83,3.16-1.61,4.16c1.79,3.07,18.39,3.89,19.52,7.44c0.89,2.82-0.67,7.66-2.36,8.94
					c-1.35,1.02-5.83,0.31-5.94,1.68c-0.88,10.69,1.15,33.58-7.1,40.68c-7.48,6.43-9.62,16.69-14.81,18.54
					c-8.01,2.67-11.22-14.51-25.51-16.03c3.91,1.79,15.26,7.94,17.35,19.89h13.84c2.14-12.17,13.88-18.33,17.54-19.97V93.07
					l8.09,1.58c0.26-8.87,3.17-13.81,4.94-16.02C353.03,78.27,352.54,77.93,352.04,77.6z"/>
				<path class="st37" d="M285.45,95.88l-2.63,0.5c-0.46,0.09-0.88-0.27-0.88-0.74c-0.06-10.13-3.66-15.05-5.11-16.62
					c-0.32-0.33-0.27-0.87,0.08-1.14c0.9-0.68,1.81-1.31,2.71-1.89C279.61,75.99,284.69,85.36,285.45,95.88z"/>
				<path class="st37" d="M355.26,79.02c-1.45,1.58-5.05,6.5-5.11,16.62c0,0.47-0.43,0.84-0.88,0.74l-2.82-0.55
					c0.47-10.5,5.08-17.62,6.47-19.54c0.76,0.49,1.51,1.03,2.27,1.59C355.53,78.15,355.58,78.69,355.26,79.02z"/>
				<path class="st37" d="M331.38,68.4c-0.58,5.46-2.59,14.27-15.33,15.46c-11.45,1.04-14.78-12.41-15.38-15.46
					c1.1-0.13,1.96-0.19,2.49-0.21c0.38-0.03,0.69,0.25,0.76,0.63c1.89,11.23,7.71,12.56,12.13,12.56c4.4,0,10.22-1.33,12.11-12.56
					c0.06-0.38,0.38-0.66,0.76-0.63C329.46,68.21,330.29,68.28,331.38,68.4z"/>
			</g>
			<polygon class="st21" points="316.04,96.4 318.75,101.88 324.79,102.76 320.42,107.02 321.45,113.04 316.04,110.2 310.63,113.04 
				311.67,107.02 307.29,102.76 313.34,101.88 			"/>
		</g>
	</g>
	<g>
		<path class="st38" d="M268.31,296.3v-4.33h-0.72c-38.44,0-69.71,31.27-69.71,69.71v62.48h4.33v-62.48
			c0-36.05,29.33-65.37,65.37-65.37H268.31z"/>
		<path class="st39" d="M267.58,291.97c-0.56,0-1.11,0.03-1.67,0.04v4.29h-0.72c-36.05,0-65.37,29.33-65.37,65.37v62.48h2.39v-62.48
			c0-36.05,29.33-65.37,65.37-65.37h0.72v-4.33H267.58z"/>
		<rect x="302.26" y="362.04" class="st38" width="4.33" height="62.13"/>
		<rect x="304.42" y="362.04" class="st39" width="2.17" height="62.13"/>
		<g>
			<rect x="284.38" y="364.93" class="st40" width="4.33" height="40.46"/>
			<rect x="266.91" y="364.93" class="st40" width="4.33" height="40.46"/>
			<rect x="249.43" y="364.93" class="st40" width="4.33" height="40.46"/>
			<rect x="231.97" y="364.93" class="st40" width="4.33" height="40.46"/>
			<rect x="214.49" y="364.93" class="st40" width="4.33" height="40.46"/>
			<rect x="284.38" y="364.93" class="st24" width="2.59" height="40.46"/>
			<rect x="266.91" y="364.93" class="st24" width="2.58" height="40.46"/>
			<rect x="249.43" y="364.93" class="st24" width="2.59" height="40.46"/>
			<rect x="231.97" y="364.93" class="st24" width="2.59" height="40.46"/>
			<rect x="214.49" y="364.93" class="st24" width="2.59" height="40.46"/>
		</g>
		<rect x="200.04" y="359.15" class="st38" width="106.37" height="7.04"/>
		<rect x="200.04" y="362.67" class="st39" width="106.37" height="3.52"/>
		<rect x="200.04" y="405.38" class="st38" width="106.37" height="7.04"/>
		<rect x="200.04" y="408.9" class="st39" width="106.37" height="3.52"/>
		<path class="st41" d="M206.11,363.29c0,3.35-2.71,6.06-6.06,6.06c-3.35,0-6.06-2.71-6.06-6.06c0-3.35,2.71-6.06,6.06-6.06
			C203.39,357.23,206.11,359.95,206.11,363.29z"/>
		<path class="st41" d="M310.49,363.29c0,3.35-2.71,6.06-6.06,6.06c-3.35,0-6.06-2.71-6.06-6.06c0-3.35,2.71-6.06,6.06-6.06
			C307.77,357.23,310.49,359.95,310.49,363.29z"/>
		<path class="st41" d="M310.49,407.9c0,3.35-2.71,6.06-6.06,6.06c-3.35,0-6.06-2.71-6.06-6.06c0-3.35,2.71-6.06,6.06-6.06
			C307.77,401.84,310.49,404.55,310.49,407.9z"/>
		<path class="st41" d="M206.11,407.9c0,3.35-2.71,6.06-6.06,6.06c-3.35,0-6.06-2.71-6.06-6.06c0-3.35,2.71-6.06,6.06-6.06
			C203.39,401.84,206.11,404.55,206.11,407.9z"/>
		<path class="st41" d="M273.91,295.9c0,3.97-3.21,7.18-7.18,7.18c-3.96,0-7.18-3.21-7.18-7.18c0-3.96,3.21-7.18,7.18-7.18
			C270.69,288.72,273.91,291.93,273.91,295.9z"/>
		<path class="st42" d="M200.04,357.23c-0.48,0-0.95,0.06-1.4,0.17c2.67,0.63,4.66,3.03,4.66,5.89c0,2.87-1.99,5.26-4.66,5.89
			c0.45,0.11,0.92,0.17,1.4,0.17c3.35,0,6.06-2.71,6.06-6.06C206.11,359.95,203.39,357.23,200.04,357.23z"/>
		<path class="st42" d="M307.69,363.29c0,2.87-1.99,5.26-4.66,5.89c0.45,0.11,0.92,0.17,1.4,0.17c3.35,0,6.06-2.71,6.06-6.06
			c0-3.35-2.71-6.06-6.06-6.06c-0.48,0-0.95,0.06-1.4,0.17C305.7,358.03,307.69,360.43,307.69,363.29z"/>
		<path class="st42" d="M304.42,401.84c-0.48,0-0.95,0.06-1.4,0.17c2.67,0.63,4.66,3.03,4.66,5.89c0,2.87-1.99,5.26-4.66,5.89
			c0.45,0.11,0.92,0.17,1.4,0.17c3.35,0,6.06-2.71,6.06-6.06C310.49,404.55,307.77,401.84,304.42,401.84z"/>
		<path class="st42" d="M200.04,401.84c-0.48,0-0.95,0.06-1.4,0.17c2.67,0.63,4.66,3.03,4.66,5.89c0,2.87-1.99,5.26-4.66,5.89
			c0.45,0.11,0.92,0.17,1.4,0.17c3.35,0,6.06-2.71,6.06-6.06C206.11,404.55,203.39,401.84,200.04,401.84z"/>
		<path class="st42" d="M266.73,288.72c-0.48,0-0.95,0.05-1.4,0.14c3.29,0.65,5.78,3.55,5.78,7.04c0,3.49-2.48,6.39-5.78,7.04
			c0.45,0.09,0.92,0.14,1.4,0.14c3.96,0,7.18-3.21,7.18-7.18C273.91,291.93,270.69,288.72,266.73,288.72z"/>
		<g>
			<rect x="266.18" y="303.08" class="st39" width="1.1" height="17.03"/>
		</g>
		<polygon class="st43" points="266.73,317.28 270.05,324.02 277.49,325.1 272.11,330.34 273.38,337.75 266.73,334.26 
			260.07,337.75 261.34,330.34 255.96,325.1 263.4,324.02 		"/>
	</g>
	<g>
		<g>
			<path class="st9" d="M86.15,316.16c0,2.25-1.83,4.08-4.08,4.08c-2.25,0-4.08-1.83-4.08-4.08c0-2.25,1.83-4.08,4.08-4.08
				C84.33,312.08,86.15,313.91,86.15,316.16z"/>
			<path class="st29" d="M104.11,340.5c0,12.17-9.86,22.04-22.03,22.04c-12.17,0-22.03-9.87-22.03-22.04
				c0-12.17,9.86-22.03,22.03-22.03C94.24,318.46,104.11,328.33,104.11,340.5z"/>
			<path class="st30" d="M93.33,321.55c1.96,3.3,3.09,7.14,3.09,11.25c0,12.17-9.86,22.03-22.03,22.03c-4.11,0-7.96-1.13-11.25-3.09
				c3.84,6.45,10.89,10.78,18.94,10.78c12.17,0,22.03-9.87,22.03-22.04C104.11,332.44,99.78,325.4,93.33,321.55z"/>
			<path class="st44" d="M103.18,343.69H60.97c-2.02,0-3.67-1.64-3.67-3.66v-1.43c0-2.03,1.64-3.67,3.67-3.67h42.21
				c2.02,0,3.67,1.64,3.67,3.67v1.43C106.85,342.05,105.2,343.69,103.18,343.69z"/>
			<path class="st45" d="M105.07,335.12c0.12,0.31,0.19,0.66,0.19,1.02v3.17c0,1.54-1.25,2.79-2.79,2.79H58.51
				c-0.36,0-0.7-0.07-1.02-0.19c0.41,1.04,1.42,1.78,2.6,1.78h43.96c1.54,0,2.79-1.25,2.79-2.79v-3.17
				C106.85,336.54,106.11,335.53,105.07,335.12z"/>
			<path class="st9" d="M82.07,403.94L82.07,403.94c-3.29,0-5.89-2.97-5.66-6.46l2.32-35.46c0.12-1.87,1.58-3.32,3.34-3.32l0,0
				c1.76,0,3.22,1.45,3.34,3.32l2.32,35.46C87.96,400.97,85.36,403.94,82.07,403.94z"/>
			<path class="st46" d="M87.74,397.48l-2.32-35.46c-0.1-1.47-1.02-2.67-2.26-3.12c0.12,0.33,0.19,0.67,0.22,1.04l2.32,35.46
				c0.23,3.49-2.37,6.46-5.66,6.46l0,0c-1.02,0-1.97-0.29-2.79-0.78c1,1.71,2.78,2.86,4.83,2.86l0,0
				C85.36,403.94,87.96,400.97,87.74,397.48z"/>
		</g>
		<g>
			<g>
				<g>
					<path class="st37" d="M129.94,383.37c0,0-3.64,10.91,0,14.19c3.64,3.28,8.73,10.73,3.09,15.64
						c-5.64,4.91-16.01,1.82-16.55-7.64c-0.55-9.46-9.46-13.64-9.28-21.28c0.18-7.64,5-17.46,16.46-15.83
						C135.12,370.09,131.66,379.82,129.94,383.37z"/>
					<circle class="st37" cx="102.61" cy="375.04" r="2.14"/>
					<path class="st37" d="M109.43,368.52c0,1.64-1.33,2.98-2.98,2.98c-1.65,0-2.98-1.33-2.98-2.98s1.33-2.98,2.98-2.98
						C108.09,365.54,109.43,366.88,109.43,368.52z"/>
					<path class="st37" d="M116.02,363.81c0,1.96-1.59,3.55-3.55,3.55c-1.96,0-3.55-1.59-3.55-3.55c0-1.96,1.59-3.55,3.55-3.55
						C114.43,360.27,116.02,361.85,116.02,363.81z"/>
					<path class="st37" d="M124.39,361.81c0,2.06-1.67,3.73-3.73,3.73c-2.06,0-3.73-1.67-3.73-3.73c0-2.06,1.67-3.73,3.73-3.73
						C122.72,358.08,124.39,359.75,124.39,361.81z"/>
					<path class="st37" d="M135.54,361.93c0,2.78-2.25,5.03-5.03,5.03s-5.03-2.25-5.03-5.03c0-2.78,2.25-5.03,5.03-5.03
						S135.54,359.15,135.54,361.93z"/>
				</g>
				<g>
					<path class="st37" d="M141.13,366.83c0,0,3.64,10.91,0,14.19c-3.64,3.27-8.73,10.73-3.09,15.64
						c5.64,4.91,16.01,1.82,16.55-7.64c0.55-9.46,9.46-13.64,9.28-21.28c-0.18-7.64-5-17.46-16.46-15.83
						C135.94,353.55,139.4,363.29,141.13,366.83z"/>
					<path class="st37" d="M166.32,358.51c0,1.18,0.96,2.14,2.14,2.14c1.18,0,2.14-0.96,2.14-2.14c0-1.18-0.96-2.14-2.14-2.14
						C167.28,356.38,166.32,357.33,166.32,358.51z"/>
					<path class="st37" d="M161.64,351.99c0,1.64,1.33,2.98,2.98,2.98c1.65,0,2.98-1.33,2.98-2.98s-1.33-2.98-2.98-2.98
						C162.97,349.01,161.64,350.34,161.64,351.99z"/>
					<path class="st37" d="M155.04,347.28c0,1.96,1.59,3.55,3.55,3.55s3.55-1.59,3.55-3.55c0-1.96-1.59-3.55-3.55-3.55
						S155.04,345.32,155.04,347.28z"/>
					<path class="st37" d="M146.67,345.28c0,2.06,1.67,3.73,3.73,3.73c2.06,0,3.73-1.67,3.73-3.73c0-2.06-1.67-3.73-3.73-3.73
						C148.34,341.55,146.67,343.22,146.67,345.28z"/>
					<path class="st37" d="M135.52,345.4c0,2.78,2.25,5.03,5.03,5.03c2.78,0,5.03-2.25,5.03-5.03c0-2.78-2.25-5.03-5.03-5.03
						C137.77,340.37,135.52,342.62,135.52,345.4z"/>
				</g>
			</g>
		</g>
	</g>
	<g>
		<g>
			<path class="st47" d="M385.08,235.81c0,3.9,0.61,7.66,1.76,11.19c3.7,11.53,12.95,20.55,24.63,23.93
				c1.9,0.56,3.87,0.96,5.89,1.19c1.41,0.17,2.84,0.26,4.29,0.26c12.78,0,24.03-6.55,30.56-16.49c3.8-5.75,6.01-12.66,6.01-20.07
				c0-4.59-0.84-8.97-2.39-13.02c-3.62-9.53-11.1-17.14-20.53-20.91c-1.34-0.56-2.71-1.02-4.14-1.4c-3.04-0.81-6.22-1.25-9.51-1.25
				c-8,0-15.39,2.57-21.42,6.94C391.06,212.8,385.08,223.61,385.08,235.81z"/>
			<path class="st9" d="M386.84,247.01c3.7,11.53,12.95,20.55,24.63,23.93c1.9,0.56,3.87,0.96,5.89,1.19l20.5-20.68l-2.95-13.79
				l-2.91-13.64c0,0-4.77,0.08-11.5,1.68C410.59,228.03,396.42,233.63,386.84,247.01z"/>
			<path class="st9" d="M432.01,224.01c12.16-2.82,20.77-1.78,23.82-1.21c-3.62-9.53-11.1-17.14-20.53-20.91
				c-1.34-0.56-2.71-1.02-4.14-1.4c-1.45,1.93-2.62,3.77-2.78,4.36C428.07,206.02,432.01,224.01,432.01,224.01z"/>
			<path class="st24" d="M411.47,270.93c1.9,0.56,3.87,0.96,5.89,1.19c1.41,0.17,2.84,0.26,4.29,0.26
				c12.78,0,24.03-6.55,30.56-16.49c-1-10.11-5.61-17.81-10.17-23.11c-5.05-5.84-10.03-8.76-10.03-8.76
				c0.28,4.95,0.03,9.47-0.63,13.59C427.68,260.92,411.47,270.93,411.47,270.93z"/>
			<path class="st24" d="M400.24,206.17c19.45-2.55,31.77,17.84,31.77,17.84c3.21-10.85,3.41-18.72,3.3-22.13
				c-1.34-0.56-2.71-1.02-4.14-1.4c-3.04-0.81-6.22-1.25-9.51-1.25C413.65,199.23,406.26,201.8,400.24,206.17z"/>
			<path class="st21" d="M422.32,230.99c3.52,6.1,10.71,8.54,16.06,5.46c5.35-3.09,6.83-10.54,3.31-16.64
				c-3.52-6.1-10.71-8.54-16.06-5.46C420.28,217.44,418.8,224.89,422.32,230.99z"/>
			<path class="st48" d="M405.7,265.17c1.9,0.55,3.87,0.96,5.89,1.19c1.41,0.17,2.84,0.26,4.29,0.26c12.78,0,24.03-6.55,30.56-16.49
				c3.8-5.75,6.01-12.66,6.01-20.08c0-4.59-0.84-8.97-2.39-13.02c-1.35-3.56-3.25-6.85-5.58-9.78c5.04,4.04,9,9.39,11.34,15.54
				c1.55,4.04,2.39,8.43,2.39,13.02c0,7.42-2.21,14.32-6.01,20.07c-6.53,9.94-17.77,16.49-30.56,16.49c-1.45,0-2.88-0.09-4.29-0.26
				c-2.03-0.23-3.99-0.63-5.89-1.19c-7.37-2.13-13.76-6.51-18.41-12.35C396.75,261.55,401.03,263.82,405.7,265.17z"/>
		</g>
		<g>
			<path class="st43" d="M360.95,250.28c0,0-10.06,3.69-7.54,17.1c2.51,13.41,28.32,14.25,37.71,6.87
				c9.38-7.37,7.23-26.16,6.37-27.65c-0.92-1.59-3.09-1.83-4.95,1.76c-0.91,1.77-2.71,2.92-4.69,3.06c-1.68,0.12-3.96-0.15-6.96-1.3
				c-8.16-3.13-12.07-2.35-13.63-2.13C365.7,248.21,360.95,250.28,360.95,250.28z"/>
			<path class="st49" d="M397.49,246.59c-0.31-0.54-0.77-0.92-1.31-1.05c0.88,1.85,2.88,20.29-6.4,27.59
				c-7.29,5.73-24.49,6.5-32.98,0.27c7.88,7.41,26.62,6.9,34.32,0.85C400.5,266.87,398.35,248.08,397.49,246.59z"/>
			<path class="st49" d="M364.58,261.55L364.58,261.55c0,3.99,3.23,7.22,7.22,7.22h3.51c7.53,0,13.63-6.1,13.63-13.63l0,0
				l-17.39-0.4C367.73,254.65,364.58,257.72,364.58,261.55z"/>
			<path class="st44" d="M388.62,255.13c-0.43,7.14-6.34,12.8-13.59,12.8h-3.51c-3.02,0-5.6-1.85-6.68-4.48
				c0.83,3.06,3.63,5.32,6.96,5.32h3.51c7.53,0,13.63-6.1,13.63-13.63L388.62,255.13z"/>
			<g>
				<path class="st50" d="M351.51,239.61c0,0-6.08,0.42-7.83,0.04c-0.07-0.02-0.14,0.05-0.12,0.12c0.35,1.25,2.97,9.44,11.07,7.33
					C363.41,244.8,351.51,239.61,351.51,239.61z"/>
				<path class="st51" d="M354.64,246.2c-7.06,1.84-9.95-4.13-10.82-6.53c-0.05-0.01-0.1-0.02-0.14-0.02
					c-0.07-0.02-0.14,0.05-0.12,0.12c0.35,1.25,2.97,9.44,11.07,7.33c2.78-0.72,3.48-1.74,3.15-2.79
					C357.53,245.02,356.61,245.68,354.64,246.2z"/>
			</g>
			<circle class="st43" cx="364.58" cy="238.94" r="13.52"/>
			<path class="st49" d="M373.44,228.74c2.06,2.37,3.32,5.47,3.32,8.86c0,7.46-6.05,13.52-13.52,13.52c-3.39,0-6.48-1.26-8.86-3.32
				c2.48,2.85,6.12,4.66,10.2,4.66c7.47,0,13.52-6.05,13.52-13.52C378.1,234.86,376.29,231.22,373.44,228.74z"/>
			<path class="st46" d="M359.1,237.88c0,1.15-0.93,2.07-2.08,2.07c-1.15,0-2.08-0.93-2.08-2.07s0.93-2.08,2.08-2.08
				C358.17,235.81,359.1,236.74,359.1,237.88z"/>
			<path class="st52" d="M358.34,237.88c0,0.73-0.59,1.32-1.32,1.32c-0.73,0-1.32-0.59-1.32-1.32s0.59-1.32,1.32-1.32
				C357.75,236.56,358.34,237.15,358.34,237.88z"/>
		</g>
	</g>
</g>
<g id="Designed_by_Freepik">
</g>
</svg>
